<?xml version="1.0" encoding="utf-8"?>
<svg width="252" height="196" viewBox="0 0 252.273 197.364" fill="none" xmlns="http://www.w3.org/2000/svg">
  <path fill-rule="evenodd" clip-rule="evenodd" d="M 206.775 13.887 L 211.834 20.548 C 213.162 22.307 212.83 24.827 211.072 26.155 L 205.7 30.238 C 206.677 32.836 207.302 35.611 207.556 38.443 L 213.67 39.283 C 215.857 39.576 217.381 41.608 217.088 43.796 L 215.955 52.099 C 215.662 54.287 213.631 55.83 211.443 55.518 L 204.763 54.599 C 203.571 57.198 202.048 59.581 200.251 61.71 L 204.001 66.634 C 205.329 68.392 204.978 70.912 203.22 72.24 L 196.559 77.3 C 194.801 78.629 192.282 78.277 190.954 76.538 L 186.871 71.166 C 184.254 72.143 181.5 72.768 178.648 73.022 L 177.808 79.136 C 177.515 81.324 175.484 82.848 173.296 82.555 L 164.995 81.422 C 162.807 81.129 161.284 79.097 161.577 76.909 L 162.495 70.228 C 159.917 69.036 157.514 67.513 155.385 65.735 L 150.463 69.466 C 148.705 70.795 146.185 70.463 144.857 68.704 L 139.798 62.043 C 138.47 60.284 138.802 57.764 140.56 56.436 L 145.931 52.353 C 144.955 49.735 144.33 46.98 144.076 44.148 L 137.962 43.308 C 135.775 43.015 134.231 40.983 134.544 38.795 L 135.677 30.492 C 135.989 28.304 138.001 26.78 140.189 27.073 L 146.869 27.992 C 148.06 25.413 149.584 23.01 151.361 20.881 L 147.631 15.957 C 146.302 14.219 146.635 11.699 148.392 10.37 L 155.053 5.31 C 156.811 3.982 159.331 4.314 160.659 6.072 L 164.741 11.445 C 167.339 10.468 170.112 9.843 172.945 9.589 L 173.785 3.474 C 174.078 1.286 176.109 -0.257 178.297 0.036 L 186.598 1.169 C 188.785 1.462 190.328 3.494 190.016 5.682 L 189.098 12.363 C 191.696 13.555 194.079 15.078 196.227 16.876 L 201.149 13.144 C 202.907 11.796 205.427 12.128 206.775 13.887 Z M 63.954 131.121 L 63.954 98.887 L 80.556 98.887 C 83.643 98.887 85.986 99.141 87.608 99.688 C 89.229 100.216 90.557 101.192 91.534 102.619 C 92.53 104.064 93.038 105.803 93.038 107.854 C 93.038 109.632 92.647 111.195 91.885 112.484 C 91.123 113.793 90.069 114.848 88.741 115.649 C 87.901 116.157 86.729 116.587 85.244 116.919 C 86.436 117.329 87.295 117.7 87.822 118.11 C 88.194 118.384 88.721 118.951 89.405 119.81 C 90.088 120.67 90.557 121.353 90.791 121.822 L 95.635 131.141 L 84.385 131.141 L 79.072 121.314 C 78.388 120.045 77.802 119.205 77.275 118.833 C 76.552 118.345 75.732 118.091 74.833 118.091 L 73.954 118.091 L 73.954 131.141 L 63.954 131.141 L 63.954 131.121 Z M 99.073 187.248 L 80.478 187.248 L 77.802 196 L 61.044 196 L 81.025 142.882 L 98.995 142.882 L 118.899 196 L 101.71 196 L 99.073 187.248 Z M 95.596 175.741 L 89.795 156.635 L 83.975 175.741 L 95.596 175.741 Z M 122.766 142.882 L 150.072 142.882 C 156.03 142.882 160.483 144.289 163.432 147.121 C 166.382 149.954 167.866 153.998 167.866 159.214 C 167.866 164.586 166.245 168.787 163.022 171.815 C 159.799 174.843 154.858 176.347 148.236 176.347 L 139.232 176.347 L 139.232 196 L 122.766 196 L 122.766 142.882 Z M 139.232 165.583 L 143.275 165.583 C 146.459 165.583 148.705 165.036 149.994 163.922 C 151.283 162.828 151.928 161.402 151.928 159.702 C 151.928 158.042 151.361 156.616 150.248 155.463 C 149.135 154.31 147.025 153.724 143.939 153.724 L 139.232 153.724 L 139.232 165.583 Z M 174.507 142.882 L 190.973 142.882 L 190.973 196 L 174.507 196 L 174.507 142.882 Z M 73.954 111.976 L 78.154 111.976 C 78.603 111.976 79.482 111.82 80.791 111.527 C 81.455 111.39 82.002 111.058 82.412 110.511 C 82.842 109.964 83.037 109.339 83.037 108.636 C 83.037 107.6 82.705 106.78 82.041 106.233 C 81.377 105.666 80.146 105.393 78.33 105.393 L 73.954 105.393 L 73.954 111.976 Z M 97.55 98.887 L 124.211 98.887 L 124.211 105.764 L 107.55 105.764 L 107.55 110.902 L 123 110.902 L 123 117.466 L 107.55 117.466 L 107.55 123.815 L 124.7 123.815 L 124.7 131.102 L 97.55 131.102 L 97.55 98.887 Z M 127.063 120.455 L 136.517 119.869 C 136.712 121.412 137.142 122.565 137.767 123.366 C 138.802 124.655 140.267 125.319 142.162 125.319 C 143.568 125.319 144.681 124.987 145.443 124.323 C 146.205 123.659 146.595 122.877 146.595 121.998 C 146.595 121.158 146.224 120.416 145.502 119.752 C 144.779 119.087 143.08 118.482 140.404 117.876 C 136.048 116.899 132.942 115.59 131.067 113.969 C 129.192 112.347 128.255 110.277 128.255 107.756 C 128.255 106.096 128.743 104.533 129.7 103.068 C 130.657 101.603 132.102 100.431 134.036 99.591 C 135.97 98.75 138.607 98.34 141.966 98.34 C 146.088 98.34 149.213 99.102 151.381 100.645 C 153.529 102.189 154.819 104.611 155.229 107.971 L 145.873 108.538 C 145.619 107.073 145.091 105.998 144.31 105.354 C 143.509 104.689 142.396 104.357 141.009 104.357 C 139.857 104.357 138.978 104.611 138.392 105.1 C 137.806 105.588 137.513 106.194 137.513 106.897 C 137.513 107.405 137.767 107.854 138.236 108.284 C 138.704 108.694 139.798 109.104 141.556 109.476 C 145.912 110.413 149.037 111.371 150.912 112.328 C 152.787 113.285 154.174 114.477 155.014 115.903 C 155.873 117.31 156.303 118.911 156.303 120.67 C 156.303 122.74 155.737 124.635 154.584 126.374 C 153.451 128.113 151.85 129.441 149.799 130.34 C 147.748 131.239 145.17 131.688 142.044 131.688 C 136.575 131.688 132.767 130.633 130.657 128.523 C 128.548 126.374 127.356 123.698 127.063 120.455 Z M 157.748 98.887 L 188.043 98.887 L 188.043 106.858 L 177.886 106.858 L 177.886 131.121 L 167.925 131.121 L 167.925 106.858 L 157.748 106.858 L 157.748 98.887 Z M 124.231 22.385 C 120.656 22.111 117.043 22.15 113.469 22.502 C 102.472 23.557 91.788 27.562 82.959 34.419 C 72.743 42.331 64.989 54.17 62.001 69.857 L 61.063 74.76 L 56.18 75.62 C 51.395 76.46 47.117 77.613 43.367 79.078 C 39.734 80.484 36.491 82.223 33.659 84.274 C 31.393 85.915 29.44 87.752 27.78 89.744 C 22.643 95.898 20.26 103.615 20.319 111.429 C 20.377 119.361 22.955 127.37 27.721 133.954 C 29.499 136.396 31.55 138.643 33.894 140.596 C 36.277 142.569 38.952 144.21 41.96 145.441 C 43.66 146.144 45.476 146.731 47.371 147.199 L 47.371 161.832 C 43.464 161.128 39.87 160.074 36.511 158.686 C 32.077 156.85 28.151 154.486 24.694 151.595 C 21.412 148.86 18.541 145.754 16.1 142.374 C 9.595 133.388 6.079 122.408 6.001 111.468 C 5.923 100.411 9.361 89.412 16.783 80.504 C 19.186 77.613 22.018 74.956 25.26 72.611 C 29.03 69.876 33.347 67.571 38.23 65.676 C 41.589 64.367 45.183 63.273 48.973 62.394 C 53.27 45.32 62.43 32.172 74.208 23.049 C 85.225 14.512 98.487 9.53 112.14 8.221 C 119.309 7.537 126.575 7.85 133.685 9.178 C 133.528 9.823 133.392 10.468 133.313 11.132 L 133.294 11.249 C 133.157 12.363 133.099 13.476 133.157 14.61 C 131.653 15.196 130.247 15.997 128.977 16.973 L 128.919 17.012 C 127.024 18.439 125.422 20.275 124.231 22.385 Z M 227.577 59.894 C 228.671 60.89 229.725 61.925 230.761 63.039 C 232.85 65.286 234.823 67.825 236.679 70.658 C 242.929 80.27 246.133 93.105 245.996 105.666 C 245.859 117.993 242.539 130.262 235.741 139.287 C 231.307 145.168 225.624 149.973 218.807 153.783 C 214.138 156.401 208.884 158.569 203.161 160.328 L 203.161 145.187 C 206.247 144.035 209.119 142.745 211.756 141.28 C 216.893 138.408 221.092 134.911 224.237 130.711 C 229.12 124.206 231.522 115.004 231.62 105.568 C 231.737 95.664 229.315 85.72 224.608 78.492 C 223.26 76.401 221.776 74.526 220.213 72.846 C 219.608 72.201 219.002 71.596 218.377 71.01 C 218.475 70.033 218.514 69.036 218.455 68.04 C 219.959 67.454 221.365 66.653 222.635 65.676 L 222.694 65.637 C 224.705 64.094 226.385 62.14 227.577 59.894 Z M 178.043 25.003 C 187.047 26.233 193.336 34.536 192.106 43.542 C 190.875 52.548 182.574 58.858 173.57 57.627 C 164.565 56.397 158.256 48.094 159.506 39.088 C 160.756 30.082 169.038 23.772 178.043 25.003 Z" fill="#01B5E6"/>
</svg>
